<?xml version="1.0" encoding="UTF-8"?>
<svg width="145px" height="150px" viewBox="0 0 145 150" version="1.1" xmlns="http://www.w3.org/2000/svg" xmlns:xlink="http://www.w3.org/1999/xlink">
    <title>Group</title>
    <defs>
        <filter id="filter-1">
            <feColorMatrix in="SourceGraphic" type="matrix" values="0 0 0 0 1.000000 0 0 0 0 1.000000 0 0 0 0 1.000000 0 0 0 1.000000 0"></feColorMatrix>
        </filter>
    </defs>
    <g id="Page-1" stroke="none" stroke-width="1" fill="none" fill-rule="evenodd">
        <g id="Group">
            <polygon id="Polygon" fill="#4CCBFF" points="72.5 0 135.286842 37.5 135.286842 112.5 72.5 150 9.71315823 112.5 9.71315823 37.5"></polygon>
            <g filter="url(#filter-1)" id="Amazon_logo">
                <g transform="translate(30.000000, 43.000000)">
                    <path d="M77.8721564,12.5485705 C68.4383634,21.9721695 54.7646543,27 42.9918519,27 C26.4844752,27 11.6236038,18.7256254 0.380779778,4.96373061 C-0.502532633,3.88154266 0.288912144,2.40671684 1.34889321,3.24947193 C13.482093,12.8167232 28.4843032,18.572394 43.9811652,18.572394 C54.4325298,18.572394 65.9297471,15.6418809 76.5012507,9.56060439 C78.0982816,8.64122259 79.4338526,10.9779728 77.8721564,12.5485705" id="path8" fill="#FF9900"></path>
                    <path d="M81.7042195,5.88555102 C80.519548,3.75483077 73.843603,4.87883319 70.847095,5.37730506 C69.9342009,5.5336905 69.7948343,4.41945768 70.6171269,3.61798902 C75.9341919,-1.63061887 84.6589182,-0.115655089 85.676337,1.64365197 C86.6937541,3.41273986 85.41153,15.679048 80.4150203,21.533636 C79.6484711,22.4328366 78.9167655,21.9539197 79.2582301,20.7614941 C80.3801782,16.832366 82.8958565,8.02604535 81.7042195,5.88555102" id="path10" fill="#FF9900"></path>
                </g>
            </g>
            <text id="hack" font-family="Courier" font-size="36" font-weight="normal" fill="#FFFFFF">
                <tspan x="27" y="104">hack</tspan>
            </text>
        </g>
    </g>
</svg>